<svg xmlns="http://www.w3.org/2000/svg" fill="none" viewBox="0 0 24 24" stroke-width="1.5" stroke="currentColor" className="size-6">
  <g clip-path="url(#clip0_131_12360)">
    <path d="M16.997 3.25867C17.2666 3.25867 17.4709 3.37626 17.5187 3.40631C17.5259 3.41083 17.5328 3.41571 17.5397 3.42067L22.4582 6.95098C22.7329 7.12271 22.8016 7.48336 22.6127 7.75813L20.7752 10.3513C20.6721 10.5231 20.4832 10.6089 20.2943 10.6089C20.1913 10.6089 20.071 10.5746 19.968 10.5059C19.2458 9.91441 18.1607 10.4263 18.158 11.3598L18.1348 19.2457C18.1324 20.0724 17.4615 20.7413 16.6348 20.7413H8.6909C7.86248 20.7413 7.19091 20.0697 7.19091 19.2413V11.5744C7.19091 10.5799 6.02927 10.0383 5.26747 10.6776C5.16443 10.7463 5.06139 10.7807 4.94117 10.7807C4.75227 10.7807 4.56336 10.6948 4.46032 10.5231L2.63992 7.75813C2.46819 7.48336 2.53688 7.13989 2.79448 6.95098L7.71725 3.51996C7.83515 3.43779 7.96407 3.3723 8.1042 3.3404C8.28089 3.30019 8.55806 3.25129 8.89108 3.2415H9.35477C9.39271 3.2415 9.42346 3.27225 9.42346 3.31019C9.42346 4.85581 10.9863 6.28121 12.6864 6.28121C14.3866 6.28121 15.9494 4.85581 15.9494 3.31019C15.9494 3.27225 15.9802 3.2415 16.0181 3.2415H16.9722C16.9814 3.2415 16.9878 3.25867 16.997 3.25867ZM16.997 2.39999H15.9494C15.709 2.39999 15.4857 2.50304 15.314 2.67477C15.1594 2.84651 15.0736 3.08693 15.0907 3.32736V3.39606C15.0392 4.44364 13.8714 5.43971 12.6864 5.43971C11.5015 5.43971 10.3337 4.44364 10.2821 3.39606V3.32736C10.2993 3.08693 10.2306 2.84651 10.0589 2.67477C9.90432 2.50304 9.66389 2.39999 9.42346 2.39999H8.87391C8.18697 2.41717 7.68894 2.57173 7.62024 2.5889C7.53438 2.62325 7.46568 2.6576 7.39699 2.70912L2.3308 6.24686C1.6782 6.69337 1.50647 7.56922 1.93581 8.23899L3.77337 11.0039C4.04815 11.3989 4.49466 11.6393 4.97552 11.6393C5.2503 11.6393 5.52507 11.5535 5.7655 11.3989C5.78804 11.3877 5.80318 11.3764 5.82063 11.3651C5.84044 11.3523 5.8604 11.3396 5.87826 11.3242C6.06299 11.165 6.3494 11.2962 6.3494 11.5401V20.7413C6.3494 21.2222 6.72722 21.6 7.20808 21.6H18.1648C18.6456 21.6 19.0235 21.2222 19.0235 20.7413L19.0397 11.3445C19.0401 11.1402 19.2781 11.0283 19.4356 11.1585C19.4761 11.1989 19.5282 11.2263 19.5779 11.2545C19.8 11.381 20.0472 11.4504 20.2943 11.4504C20.7752 11.4504 21.2217 11.21 21.4793 10.815L23.2933 8.24802C23.2975 8.24201 23.3023 8.23638 23.3075 8.23117C23.3137 8.22495 23.3193 8.21808 23.3241 8.21069C23.7442 7.5591 23.5707 6.67377 22.9219 6.24686L18.0327 2.70821C18.0177 2.69738 18.0037 2.68451 17.9873 2.67618C17.9668 2.66582 17.9493 2.65124 17.9294 2.63988C17.8186 2.5767 17.4553 2.39999 16.997 2.39999Z" fill="currentColor" stroke="currentColor" />
  </g>
  <defs>
    <clipPath id="clip0_131_12360">
      <rect width="24" height="24" fill="currentColor" transform="translate(0.5)" />
    </clipPath>
  </defs>
</svg>